<svg width="84" height="48" viewBox="0 0 84 48" fill="none" xmlns="http://www.w3.org/2000/svg">
<path d="M83.5 0H0V1.92045H83.5V0Z" fill="#181818"/>
<path d="M83.5 2.99902H0V3.63823H83.5V2.99902Z" fill="#181818"/>
<path d="M0.662109 6.37305H7.34109C10.0115 6.37305 11.324 6.68839 12.5882 7.4668C15.1138 9.02077 16.3297 11.5719 16.3297 14.4867C16.3297 17.4015 15.0172 20.2196 12.4661 21.6287C10.6195 22.6486 8.53143 22.6003 6.51438 22.6003H0.662109V21.9924H3.04279V6.981H0.662109V6.37305ZM6.15074 21.9924C9.23597 21.9924 11.3496 22.1855 12.3922 19.0037C12.9263 17.3759 13.0002 15.4327 13.0002 13.8787C13.0002 10.7708 12.3922 8.80202 11.665 8.09748C10.6678 7.12589 8.94336 6.981 6.15074 6.981V21.9924Z" fill="#181818"/>
<path d="M32.2883 6.37305V6.981H29.8593V17.1827C29.8593 19.6117 29.3962 20.802 28.4019 21.6997C27.4047 22.5975 25.8763 22.964 23.6888 22.964C21.9644 22.964 20.4104 22.4299 19.3905 21.677C18.3451 20.8986 17.8849 19.3219 17.8849 16.6003V6.981H15.4814V6.37305H23.3991V6.981H20.9928V15.8702C20.9928 19.248 20.6292 22.1855 25.0241 22.1855C27.865 22.1855 29.0809 20.3872 29.0809 17.7168V6.981H26.7258V6.37305H32.2883Z" fill="#181818"/>
<path d="M44.6786 17.7625V22.7426H44.1445L43.1474 21.5779C42.0536 22.5239 40.4258 22.9614 38.994 22.9614C34.7184 22.9614 31.4883 18.6148 31.4883 14.5807C31.4883 11.4216 33.1644 8.43581 35.886 6.80797C36.8576 6.24831 38.0735 6.00684 39.19 6.00684C40.5508 6.00684 41.886 6.39604 42.957 7.27104L43.9286 6.25115H44.4627V10.9387H43.7582C43.3945 8.29093 41.5479 6.61479 39.1673 6.61479C37.6133 6.61479 36.8121 6.9557 35.9599 8.26536C34.8178 10.0154 35.0621 12.8335 35.0621 14.7994C35.0621 16.183 35.0138 18.0779 35.4741 19.6574C35.9343 21.2114 37.0763 22.2568 38.9229 22.3534C41.9116 22.4983 43.2951 20.3847 43.9996 17.7625H44.6786Z" fill="#181818"/>
<path d="M45.5283 22.5977V21.9898H47.4971L53.301 6.00684H54.1278L59.6903 21.9898H61.6334V22.5977H53.9346V21.9898H56.463L54.98 17.6915H49.7329L48.2272 21.9898H50.7045V22.5977H45.5312H45.5283ZM49.9971 17.0835H54.7329L52.4488 10.3051L49.9971 17.0835Z" fill="#181818"/>
<path d="M62.5534 22.6003V21.9924H65.1046V6.981C61.6784 6.81055 60.6358 8.46396 60.1983 11.5719H59.4199L59.687 6.37305H73.6046L73.8716 11.5719H73.1188C72.6813 8.46396 71.6387 6.81055 68.2125 6.981V21.9924H70.7637V22.6003H62.5534Z" fill="#181818"/>
<path d="M80.4371 21.9924H82.8433V22.6003H74.9229V21.9924H77.3291V6.981H74.9229V6.37305H82.8433V6.981H80.4371V21.9924Z" fill="#181818"/>
<path d="M26.6776 36.1473V41.1274H26.1436L25.1464 39.9626C24.0526 40.9086 22.4248 41.3461 20.993 41.3461C16.7174 41.3461 13.4873 36.9996 13.4873 32.9655C13.4873 29.8064 15.1634 26.8206 17.885 25.1927C18.8566 24.6331 20.0697 24.3916 21.189 24.3916C22.5498 24.3916 23.885 24.7808 24.9532 25.6558L25.9248 24.6359H26.4589V29.3234H25.7543C25.3907 26.6757 23.5441 24.9996 21.1634 24.9996C19.6095 24.9996 18.8083 25.3405 17.9561 26.6501C16.814 28.4001 17.0583 31.2183 17.0583 33.1842C17.0583 34.5677 17.01 36.4626 17.4703 38.0422C17.9333 39.5961 19.0725 40.6416 20.9191 40.7382C23.9078 40.8831 25.2913 38.7694 25.9958 36.1473H26.6748H26.6776Z" fill="#181818"/>
<path d="M27.8925 40.9825V40.3746H29.8612L35.6652 24.3916H36.4919L42.0544 40.3746H43.9976V40.9825H36.2959V40.3746H38.8215L37.3385 36.0763H32.0914L30.5857 40.3746H33.0629V40.9825H27.8896H27.8925ZM32.3612 35.4683H37.097L34.8129 28.6899L32.3584 35.4683H32.3612Z" fill="#181818"/>
<path d="M45.5506 41.1274H45.1387V36.2922H45.8432C46.3546 38.599 47.7381 40.7382 50.312 40.7382C52.2324 40.7382 53.9313 39.3291 53.9313 37.3376C53.9313 35.0791 51.9142 34.6416 50.0932 34.0109C49.6074 33.8405 49.1216 33.67 48.6358 33.5251C46.3773 32.8461 45.258 31.1444 45.258 28.8376C45.258 26.2865 47.1529 24.3916 49.6784 24.3916C51.0875 24.3916 52.1074 24.7325 53.2239 25.6047L54.1472 24.6331H54.5847V29.224H53.8063C53.5392 26.9172 52.0336 24.9967 49.6046 24.9967C48.0506 24.9967 46.5932 26.1388 46.5932 27.7666C46.5932 29.6359 47.8801 29.8319 49.3858 30.2439C49.9938 30.4143 50.4796 30.5848 50.8915 30.7041C51.3773 30.849 51.9853 31.0194 52.4938 31.2638C54.5336 32.2354 55.2637 33.8376 55.2637 36.0251C55.2637 39.0848 53.2722 41.3461 50.1387 41.3461C48.9966 41.3461 47.5392 40.8859 46.6898 40.1075L45.5478 41.1274H45.5506Z" fill="#181818"/>
<path d="M61.5125 25.3637V32.3353C63.8449 32.3353 65.0835 31.9717 65.2057 29.3722H65.8847V36.1507H65.2057C64.987 33.4546 64.1375 32.8722 61.5125 32.9433V40.3751H64.9614C68.1205 40.3751 68.7994 38.5058 69.3108 35.7586H70.0154L69.7966 40.9802H55.9756V40.3722H58.4046V25.3609H55.9756V24.7529H69.4074L69.5523 29.1251H68.8733C68.3619 26.7927 67.4387 25.895 66.2 25.5541C65.5921 25.3836 64.8875 25.3609 64.0864 25.3609H61.5125V25.3637Z" fill="#181818"/>
<path d="M83.5 45.4854H0V47.4058H83.5V45.4854Z" fill="#181818"/>
<path d="M83.5 43.7021H0V44.3414H83.5V43.7021Z" fill="#181818"/>
</svg>
